<?xml version="1.0" encoding="utf-8"?>
<svg xmlns="http://www.w3.org/2000/svg" version="1.1" id="Layer_1" x="0px" y="0px"
     enable-background="new 0 0 400 86" xml:space="preserve" viewBox="0 0 400 86"
     preserveAspectRatio="none">
  <defs/>
    <g transform="matrix(1 0 0 1 0 3)">
    <path fill="#1A3949" stroke="#FFFFFF" stroke-width="2" stroke-linecap="round" stroke-linejoin="round"
          stroke-miterlimit="10"
          d="   M17.748,35.5L1.25,49.125l0.943-2.083l40,5.062l4.083,3.146h296.083l6.584-3.916c0,0,31.5-2.209,45.833-11.988   c4.739-3.233,4.214-8.084-5.196-11.138c-10.554-3.426-34.304-4.573-52.387-4.298c-1.839,1.227-4.562,2.34-4.562,2.34H62.11   L17.748,35.5z"/>
        <polygon opacity="0.2" fill="#F2F2F2" points="391.464,41.25 11.279,41.25 9.443,43.25 388.642,43.25  "/>
        <polygon opacity="0.2" fill="#F2F2F2" points="395.705,38.25 11.279,38.25 9.443,39.25 394.083,39.25  "/>
        <path fill="none" stroke="#314551" stroke-width="2" stroke-linecap="round" stroke-linejoin="round"
              stroke-miterlimit="10" d="   M394.776,39.888"/>
        <g>
      <polygon fill="#FFFFFF" stroke="#C8D2D6" stroke-linecap="round" stroke-linejoin="round" stroke-miterlimit="10"
               points="    57.401,41.75 18.61,41.75 40.826,19.584 74.12,19.417   "/>
            <polygon fill="#FFFFFF" stroke="#697277" stroke-linecap="round" stroke-linejoin="round"
                     stroke-miterlimit="10" points="    57.693,29.75 37.193,29.75 55.693,11.75 74.193,11.75   "/>
            <polygon fill="#BCCDD8" stroke="#374044" stroke-linecap="round" stroke-linejoin="round"
                     stroke-miterlimit="10"
                     points="    57.75,52.75 18.75,52.75 18.75,41.75 36.75,41.75 36.75,29.75 57.75,29.75   "/>
            <polygon fill="#BCCDD8" stroke="#374044" stroke-linecap="round" stroke-linejoin="round"
                     stroke-miterlimit="10" points="    73.75,30.167 57.75,52.417 57.75,29.417 73.75,11.917   "/>
            <rect x="41.193" y="33.417" fill="#374044" stroke="#374044" stroke-linecap="round" stroke-linejoin="round"
                  stroke-miterlimit="10" width="2" height="2"/>
            <rect x="45.693" y="33.417" fill="#374044" stroke="#374044" stroke-linecap="round" stroke-linejoin="round"
                  stroke-miterlimit="10" width="2" height="2"/>
            <rect x="50.693" y="33.417" fill="#374044" stroke="#374044" stroke-linecap="round" stroke-linejoin="round"
                  stroke-miterlimit="10" width="2" height="2"/>
            <rect x="41.193" y="38.917" fill="#374044" stroke="#374044" stroke-linecap="round" stroke-linejoin="round"
                  stroke-miterlimit="10" width="2" height="2"/>
            <rect x="45.693" y="38.917" fill="#374044" stroke="#374044" stroke-linecap="round" stroke-linejoin="round"
                  stroke-miterlimit="10" width="2" height="2"/>
            <rect x="50.693" y="38.917" fill="#374044" stroke="#374044" stroke-linecap="round" stroke-linejoin="round"
                  stroke-miterlimit="10" width="2" height="2"/>
            <rect x="41.193" y="44.417" fill="#374044" stroke="#374044" stroke-linecap="round" stroke-linejoin="round"
                  stroke-miterlimit="10" width="2" height="2"/>
            <rect x="45.693" y="44.417" fill="#374044" stroke="#374044" stroke-linecap="round" stroke-linejoin="round"
                  stroke-miterlimit="10" width="2" height="2"/>
            <rect x="50.693" y="44.417" fill="#374044" stroke="#374044" stroke-linecap="round" stroke-linejoin="round"
                  stroke-miterlimit="10" width="2" height="2"/>
            <rect x="23.693" y="44.417" fill="#374044" stroke="#374044" stroke-linecap="round" stroke-linejoin="round"
                  stroke-miterlimit="10" width="2" height="2"/>
            <rect x="28.193" y="44.417" fill="#374044" stroke="#374044" stroke-linecap="round" stroke-linejoin="round"
                  stroke-miterlimit="10" width="2" height="2"/>
            <rect x="33.193" y="44.417" fill="#374044" stroke="#374044" stroke-linecap="round" stroke-linejoin="round"
                  stroke-miterlimit="10" width="2" height="2"/>
            <polygon fill="#374044" stroke="#374044" stroke-linecap="round" stroke-linejoin="round"
                     stroke-miterlimit="10" points="    61.75,32.011 59.75,33.604 59.75,31.417 61.75,29.75   "/>
            <polygon fill="#374044" stroke="#374044" stroke-linecap="round" stroke-linejoin="round"
                     stroke-miterlimit="10" points="    64.75,28.011 63.75,29.604 63.75,27.417 64.75,25.75   "/>
            <polygon fill="#374044" stroke="#374044" stroke-linecap="round" stroke-linejoin="round"
                     stroke-miterlimit="10" points="    68.75,24.011 66.75,25.604 66.75,23.417 68.75,21.75   "/>
            <polygon fill="#374044" stroke="#374044" stroke-linecap="round" stroke-linejoin="round"
                     stroke-miterlimit="10" points="    71.75,20.511 70.75,22.104 70.75,19.917 71.75,18.25   "/>
            <polygon fill="#374044" stroke="#374044" stroke-linecap="round" stroke-linejoin="round"
                     stroke-miterlimit="10" points="    61.75,39.011 59.75,40.604 59.75,38.417 61.75,36.75   "/>
            <polygon fill="#374044" stroke="#374044" stroke-linecap="round" stroke-linejoin="round"
                     stroke-miterlimit="10" points="    64.75,34.511 63.75,36.104 63.75,33.917 64.75,32.25   "/>
            <polygon fill="#374044" stroke="#374044" stroke-linecap="round" stroke-linejoin="round"
                     stroke-miterlimit="10" points="    68.75,30.511 66.75,32.104 66.75,29.917 68.75,28.25   "/>
            <polygon fill="#374044" stroke="#374044" stroke-linecap="round" stroke-linejoin="round"
                     stroke-miterlimit="10" points="    71.75,26.511 70.75,28.104 70.75,25.917 71.75,24.25   "/>
    </g>
        <path fill="#012535" stroke="#FFFFFF" stroke-linecap="round" stroke-linejoin="round" stroke-miterlimit="10"
              d="M368.443,27.167   C389.11,29,404.61,32.834,394.776,39.888c4.739-3.233,5.52-9.166-3.312-12.138c-10.89-3.665-34.631-5.525-52.714-5.25   c-1.839,1.227-6.119,3.917-6.119,3.917S349.596,25.495,368.443,27.167z"/>
        <path fill="#DCE6EA" id="vessel" stroke="#FFFFFF" stroke-width="2" stroke-linecap="round"
              stroke-linejoin="round" stroke-miterlimit="10"
              d="   M397.859,34.417c0.905,3.213-8.204,15.008-11.734,23.833c-1.245,3.112-1.75,4.683-1.785,9.5   c-0.039,5.41,3.087,10.362-13.397,13.417C363.75,82.5,311,83.5,228.443,83.5c-88.812,0-153.124-2.083-163.693-2.083   c-30,0-63.5-32.25-63.5-32.25l0.943-2.104l40,5.053l4.083,3.135h296.083l6.584-3.916c0,0,13.562-0.709,28.617-4.801   C390.58,42.995,396.447,39.388,397.859,34.417z"/>
        <path fill="#AF0E44"
              d="M383.365,67.173c0,0-23.057,3.235-54.088,3.994c-47.894,1.171-104.334,1.397-131.058,1.292   c-31.527-0.125-82.278-0.436-129.942-1.292c-21.8-0.392-43.583-5.417-43.583-5.417c11.311,7.831,25.09,14.667,39.057,14.667   c9.227,0,105.86,3.083,131.193,3.083c28.271,0,91.412-0.144,134.003-0.611c22.188-0.243,38.872-1.296,41.997-1.972   C386.75,77.5,384.178,71.283,383.365,67.173z"/>
        <g>
      <polygon fill="#FFFFFF" stroke="#C8D2D6" stroke-linecap="round" stroke-linejoin="round" stroke-miterlimit="10"
               points="    105.946,47.75 78.75,47.75 92,30.348 116.584,30.407   "/>
            <rect x="78.75" y="47.75" fill="#1B2428" stroke="#C8D2D6" stroke-linecap="round" stroke-linejoin="round"
                  stroke-miterlimit="10" width="27" height="4"/>
            <polygon fill="#3B5159" stroke="#C8D2D6" stroke-linecap="round" stroke-linejoin="round"
                     stroke-miterlimit="10" points="    116.75,34.625 105.75,51.75 105.75,47.75 116.75,30.407   "/>
    </g>
        <g>
      <polygon fill="#FFFFFF" stroke="#C8D2D6" stroke-linecap="round" stroke-linejoin="round" stroke-miterlimit="10"
               points="    145.946,47.75 118.75,47.75 132,30.348 156.584,30.407   "/>
            <rect x="118.75" y="47.75" fill="#1B2428" stroke="#C8D2D6" stroke-linecap="round" stroke-linejoin="round"
                  stroke-miterlimit="10" width="27" height="4"/>
            <polygon fill="#3B5159" stroke="#C8D2D6" stroke-linecap="round" stroke-linejoin="round"
                     stroke-miterlimit="10" points="    156.75,34.625 145.75,51.75 145.75,47.75 156.75,30.407   "/>
    </g>
        <g>
      <polygon fill="#FFFFFF" stroke="#C8D2D6" stroke-linecap="round" stroke-linejoin="round" stroke-miterlimit="10"
               points="    185.946,47.75 158.75,47.75 172,30.348 196.584,30.407   "/>
            <rect x="158.75" y="47.75" fill="#1B2428" stroke="#C8D2D6" stroke-linecap="round" stroke-linejoin="round"
                  stroke-miterlimit="10" width="27" height="4"/>
            <polygon fill="#3B5159" stroke="#C8D2D6" stroke-linecap="round" stroke-linejoin="round"
                     stroke-miterlimit="10" points="    196.75,34.625 185.75,51.75 185.75,47.75 196.75,30.407   "/>
    </g>
        <g>
      <polygon fill="#FFFFFF" stroke="#C8D2D6" stroke-linecap="round" stroke-linejoin="round" stroke-miterlimit="10"
               points="    223.946,47.75 196.75,47.75 210,30.348 234.584,30.407   "/>
            <rect x="196.75" y="47.75" fill="#1B2428" stroke="#C8D2D6" stroke-linecap="round" stroke-linejoin="round"
                  stroke-miterlimit="10" width="27" height="4"/>
            <polygon fill="#3B5159" stroke="#C8D2D6" stroke-linecap="round" stroke-linejoin="round"
                     stroke-miterlimit="10" points="    234.75,34.625 223.75,51.75 223.75,47.75 234.75,30.407   "/>
    </g>
        <g>
      <polygon fill="#FFFFFF" stroke="#C8D2D6" stroke-linecap="round" stroke-linejoin="round" stroke-miterlimit="10"
               points="    263.946,47.75 236.75,47.75 250,30.348 274.584,30.407   "/>
            <rect x="236.75" y="47.75" fill="#1B2428" stroke="#C8D2D6" stroke-linecap="round" stroke-linejoin="round"
                  stroke-miterlimit="10" width="27" height="4"/>
            <polygon fill="#3B5159" stroke="#C8D2D6" stroke-linecap="round" stroke-linejoin="round"
                     stroke-miterlimit="10" points="    274.75,34.625 263.75,51.75 263.75,47.75 274.75,30.407   "/>
    </g>
        <g>
      <polygon fill="#FFFFFF" stroke="#C8D2D6" stroke-linecap="round" stroke-linejoin="round" stroke-miterlimit="10"
               points="    304.946,47.75 277.75,47.75 291,30.348 315.584,30.407   "/>
            <rect x="277.75" y="47.75" fill="#1B2428" stroke="#C8D2D6" stroke-linecap="round" stroke-linejoin="round"
                  stroke-miterlimit="10" width="27" height="4"/>
            <polygon fill="#3B5159" stroke="#C8D2D6" stroke-linecap="round" stroke-linejoin="round"
                     stroke-miterlimit="10" points="    315.75,34.625 304.75,51.75 304.75,47.75 315.75,30.407   "/>
    </g>
        <g>
      <polygon fill="#FFFFFF" stroke="#C8D2D6" stroke-linecap="round" stroke-linejoin="round" stroke-miterlimit="10"
               points="    342.946,47.75 315.75,47.75 329,30.348 353.584,30.407   "/>
            <rect x="315.75" y="47.75" fill="#1B2428" stroke="#C8D2D6" stroke-linecap="round" stroke-linejoin="round"
                  stroke-miterlimit="10" width="27" height="4"/>
            <polygon fill="#3B5159" stroke="#C8D2D6" stroke-linecap="round" stroke-linejoin="round"
                     stroke-miterlimit="10" points="    353.75,34.625 342.75,51.75 342.75,47.75 353.75,30.407   "/>
    </g>
  </g>
    <g transform="matrix(1 0 0 1 0 4)">
    <polygon stroke="#CCCCCC" stroke-linecap="round" stroke-linejoin="round" stroke-miterlimit="10"
             points="53.095,8.75    51.193,8.75 58.693,1.75 60.75,1.75  "/>
        <rect x="46.75" y="7.75" fill="#FFFFFF" stroke="#697277" stroke-linecap="round" stroke-linejoin="round"
              stroke-miterlimit="10" width="6" height="15"/>
        <polygon fill="#7E9596" stroke="#CCCCCC" stroke-linecap="round" stroke-linejoin="round" stroke-miterlimit="10"
                 points="   60.75,1.75 56.75,14.25 53.095,8.75  "/>
        <polygon fill="#FFFFFF" stroke="#697277" stroke-linecap="round" stroke-linejoin="round" stroke-miterlimit="10"
                 points="   56.75,18.75 52.75,22.75 52.75,7.75 56.75,3.75  "/>
        <polygon fill="#FFFFFF" stroke="#697277" stroke-linecap="round" stroke-linejoin="round" stroke-miterlimit="10"
                 points="   56.75,3.75 50.75,3.75 46.75,7.75 52.75,7.75  "/>
        <polygon stroke="#CCCCCC" stroke-linecap="round" stroke-linejoin="round" stroke-miterlimit="10"
                 points="41.095,20.75    39.193,20.75 48.693,11.75 50.75,11.75  "/>
        <polygon fill="#7E9596" stroke="#CCCCCC" stroke-linecap="round" stroke-linejoin="round" stroke-miterlimit="10"
                 points="   50.75,11.75 50.75,20.332 41.095,20.75  "/>
  </g>
    <g id="HookPoint">
	<path id="HookPointH" fill="none" d="M349.12,53.08C391.56,49.67,397.98,37.56,397.98,37.56"/>
        <line id="HookPointE" fill="none" x1="46.45" y1="57" x2="105.93" y2="57"/>
        <rect id="HookPointH_M0" x="349.12" y="53.08"/>
        <rect id="HookPointH_C1" x="391.56" y="49.67"/>
        <rect id="HookPointH_C2" x="397.98" y="37.56"/>
        <rect id="HookPointH_C3" x="397.98" y="37.56"/>
  </g>
</svg>