<?xml version="1.0" encoding="utf-8"?>
<!-- Generator: Adobe Illustrator 23.0.1, SVG Export Plug-In . SVG Version: 6.00 Build 0)  -->
<svg version="1.1" id="图层_1" xmlns="http://www.w3.org/2000/svg" x="0px" y="0px"
	 viewBox="0 0 323 78" enable-background="new 0 0 323 78" xml:space="preserve"
	 preserveAspectRatio="none">
<path fill="#FFFFFF" stroke="#132F85" stroke-width="3" stroke-miterlimit="10" d="M320.9,34C297.2,1.6,255.6,1.6,255.6,1.6
	s-215.3,0-234,0s-20,18-20,18v14.3v14.3c0,0,1.3,18,20,18s234,0,234,0S297.2,66.3,320.9,34z"/>
<path fill="#050052" d="M255.8,66.3c0,0-0.1,0-0.2,0c-7.6,0-206.1,0-224.4,0c-4.6,0-7.9,0-9.6,0c-10.4,0-15.4-5.5-17.8-10.5H3.6
	c0,0,6.1,10.8,12.9,15.9c6.7,5.1,7.9,5.8,9.2,6.2l224.6,0.7c0,0,20.3-1.3,39.8-14.5s28.4-23.1,31.1-27.9l-1.8,0.1
	C295.4,66.3,255.8,66.3,255.8,66.3z"/>
<g transform="matrix(0.9999999,0,0,0.9999999,-0.601716,-0.8002366)">
	<rect x="27.1" y="9.3" fill="#A0A0A0" width="22.5" height="51.1"/>
	<rect x="19.6" y="9.2" fill="#A0A0A0" width="20" height="45.1"/>
</g>
<g transform="matrix(0.9999999,0,0,0.9999999,-0.601716,-0.8002366)">
	<rect x="30.6" y="14.1" fill="#B2B2B2" width="16.2" height="41.4"/>
	<rect x="22.5" y="14.1" fill="#B2B2B2" width="16.2" height="36.6"/>
</g>
<rect x="40.1" y="4.7" fill="#CCCCCC" width="4.1" height="58.5"/>
<g transform="matrix(0.9999999,0,0,0.9999999,-0.601716,-0.8002366)">
	<g>
		<circle fill="#B5B5B5" cx="78.5" cy="34.8" r="24"/>
		<rect x="54.5" y="34.1" fill="#8E8E8E" width="47.9" height="1.3"/>
		<rect x="77.8" y="10.8" fill="#8E8E8E" width="1.3" height="47.9"/>
		<circle fill="#C4C4C4" cx="78.5" cy="34.8" r="4.7"/>
		<circle fill="#D8D8D8" cx="78.5" cy="34.8" r="1.5"/>
	</g>
	<g>
		<circle fill="#B5B5B5" cx="130.4" cy="34.8" r="24"/>
		<rect x="106.4" y="34.1" fill="#8E8E8E" width="47.9" height="1.3"/>
		<rect x="129.7" y="10.8" fill="#8E8E8E" width="1.3" height="47.9"/>
		<circle fill="#C4C4C4" cx="130.4" cy="34.8" r="4.7"/>
		<circle fill="#D8D8D8" cx="130.4" cy="34.8" r="1.5"/>
	</g>
	<g>
		<circle fill="#B5B5B5" cx="182.3" cy="34.8" r="24"/>
		<rect x="158.3" y="34.1" fill="#8E8E8E" width="47.9" height="1.3"/>
		<rect x="181.6" y="10.8" fill="#8E8E8E" width="1.3" height="47.9"/>
		<circle fill="#C4C4C4" cx="182.3" cy="34.8" r="4.7"/>
		<circle fill="#D8D8D8" cx="182.3" cy="34.8" r="1.5"/>
	</g>
	<g>
		
			<ellipse transform="matrix(0.1602 -0.9871 0.9871 0.1602 162.3347 260.4016)" fill="#B5B5B5" cx="234.2" cy="34.8" rx="24" ry="24"/>
		<rect x="210.2" y="34.1" fill="#8E8E8E" width="47.9" height="1.3"/>
		<rect x="233.5" y="10.8" fill="#8E8E8E" width="1.3" height="47.9"/>
		<circle fill="#C4C4C4" cx="234.2" cy="34.8" r="4.7"/>
		<circle fill="#D8D8D8" cx="234.2" cy="34.8" r="1.5"/>
	</g>
	<rect x="73.7" y="39.5" fill="#D8D8D8" width="161.9" height="1.3"/>
</g>
<g transform="matrix(0.9999999,0,0,0.9999999,-0.601716,-0.8002366)">
	<rect x="106.9" y="57.9" fill="#D8D8D8" width="10.7" height="5"/>
	<circle fill="#B5B5B5" cx="112.3" cy="60.4" r="1.9"/>
	<circle fill="#C9C9C9" cx="112.3" cy="60.4" r="0.9"/>
	<polygon fill="#D8D8D8" points="108.7,58.5 106.9,57.9 88.8,57.9 108.3,61.2 	"/>
</g>
<g transform="matrix(0.9999999,0,0,0.9999999,-0.601716,-0.8002366)">
	<rect x="253.9" y="7.7" fill="#D8D8D8" width="10.7" height="5"/>
	<circle fill="#B5B5B5" cx="259.2" cy="10.2" r="1.9"/>
	<circle fill="#C9C9C9" cx="259.2" cy="10.2" r="0.9"/>
	<polygon fill="#D8D8D8" points="255.6,8.4 253.9,7.7 235.7,7.7 255.2,11.1 	"/>
</g>
<g transform="matrix(0.9999999,0,0,0.9999999,-0.601716,-0.8002366)">
	<circle fill="#B5B5B5" cx="290.1" cy="21.1" r="4.7"/>
	<circle fill="#C9C9C9" cx="290.1" cy="21.1" r="2.2"/>
</g>
<g transform="matrix(0.9999999,0,0,0.9999999,-0.601716,-0.8002366)">
	<circle fill="#B5B5B5" cx="300.9" cy="27.1" r="4.7"/>
	<circle fill="#C9C9C9" cx="300.9" cy="27.1" r="2.2"/>
</g>
<g id="HookPoint">
	<line id="HookPointE" fill="none" x1="18.9" y1="63.6" x2="77.7" y2="63.6"/>
	<path id="HookPointH" fill="none" d="M255.4,63.6C281.9,60.7,302.5,51.4,316.1,34.3"/>
	<rect id="HookPointH_M0" x="255.4" y="63.6"/>
	<rect id="HookPointH_C1" x="281.9" y="60.7"/>
	<rect id="HookPointH_C2" x="302.5" y="51.4"/>
	<rect id="HookPointH_C3" x="316.1" y="34.3"/>
</g>
</svg>
