<?xml version="1.0" encoding="utf-8"?>
<!-- Generator: Adobe Illustrator 23.0.1, SVG Export Plug-In . SVG Version: 6.00 Build 0)  -->
<svg version="1.1" id="图层_1" xmlns="http://www.w3.org/2000/svg" x="0px" y="0px"
     viewBox="0 0 322 78" enable-background="new 0 0 322 78" xml:space="preserve"
     preserveAspectRatio="none">
<path fill="#FFFFFF" stroke="#132F85" stroke-width="3" stroke-miterlimit="10" d="M1.7,33.8C25.4,1.4,67,1.4,67,1.4s215.3,0,234,0
	s20,18,20,18v14.3V48c0,0-1.3,18-20,18S67,66,67,66S25.4,66.1,1.7,33.8z"/>
    <path fill="#050052" d="M66.8,66.1c0,0,0.1,0,0.2,0c7.6,0,206.1,0,224.4,0c4.6,0,7.9,0,9.6,0c10.4,0,15.4-5.5,17.8-10.5h0.2
	c0,0-6.1,10.8-12.9,15.9c-6.7,5.1-7.9,5.8-9.2,6.2L72.3,78.4c0,0-20.3-1.3-39.8-14.5S4.1,40.8,1.5,36l1.8,0.1
	C27.2,66.1,66.8,66.1,66.8,66.1z"/>
    <g transform="matrix(0.9999999,0,0,0.9999999,-1.666727,-1.000013)">
	<rect x="275.3" y="9.3" fill="#A0A0A0" width="22.5" height="51.1"/>
        <rect x="285.2" y="9.2" fill="#A0A0A0" width="20" height="45.1"/>
</g>
    <g transform="matrix(0.9999999,0,0,0.9999999,-1.666727,-1.000013)">
	<rect x="278.1" y="14.1" fill="#B2B2B2" width="16.2" height="41.4"/>
        <rect x="286.3" y="14" fill="#B2B2B2" width="16.2" height="36.6"/>
</g>
    <rect x="278.5" y="4.6" fill="#CCCCCC" width="4.1" height="58.5"/>
    <g transform="matrix(0.9999999,0,0,0.9999999,-1.666727,-1.000013)">
	<g>
		<circle fill="#B5B5B5" cx="246.4" cy="34.8" r="24"/>
        <rect x="222.5" y="34.1" fill="#8E8E8E" width="47.9" height="1.3"/>
        <rect x="245.8" y="10.8" fill="#8E8E8E" width="1.3" height="47.9"/>
        <circle fill="#C4C4C4" cx="246.4" cy="34.8" r="4.7"/>
        <circle fill="#D8D8D8" cx="246.4" cy="34.8" r="1.5"/>
	</g>
        <g>
		<circle fill="#B5B5B5" cx="194.5" cy="34.8" r="24"/>
            <rect x="170.6" y="34.1" fill="#8E8E8E" width="47.9" height="1.3"/>
            <rect x="193.9" y="10.8" fill="#8E8E8E" width="1.3" height="47.9"/>
            <circle fill="#C4C4C4" cx="194.5" cy="34.8" r="4.7"/>
            <circle fill="#D8D8D8" cx="194.5" cy="34.8" r="1.5"/>
	</g>
        <g>
		<circle fill="#B5B5B5" cx="142.6" cy="34.8" r="24"/>
            <rect x="118.7" y="34.1" fill="#8E8E8E" width="47.9" height="1.3"/>
            <rect x="141.9" y="10.8" fill="#8E8E8E" width="1.3" height="47.9"/>
            <circle fill="#C4C4C4" cx="142.6" cy="34.8" r="4.7"/>
            <circle fill="#D8D8D8" cx="142.6" cy="34.8" r="1.5"/>
	</g>
        <g>
		<circle fill="#B5B5B5" cx="90.7" cy="34.8" r="24"/>
            <rect x="66.8" y="34.2" fill="#8E8E8E" width="47.9" height="1.3"/>
            <rect x="90" y="10.8" fill="#8E8E8E" width="1.3" height="47.9"/>
            <circle fill="#C4C4C4" cx="90.7" cy="34.8" r="4.7"/>
            <circle fill="#D8D8D8" cx="90.7" cy="34.8" r="1.5"/>
	</g>
        <rect x="89.2" y="39.4" fill="#D8D8D8" width="161.9" height="1.3"/>
</g>
    <g transform="matrix(0.9999999,0,0,0.9999999,-1.666727,-1.000013)">
	<rect x="207.2" y="57.8" fill="#D8D8D8" width="10.7" height="5"/>
        <circle fill="#B5B5B5" cx="212.6" cy="60.4" r="1.9"/>
        <circle fill="#C9C9C9" cx="212.6" cy="60.4" r="0.9"/>
        <polygon fill="#D8D8D8" points="216.2,58.5 218,57.9 236.1,57.9 216.6,61.2 	"/>
</g>
    <g transform="matrix(0.9999999,0,0,0.9999999,-1.666727,-1.000013)">
	<rect x="60.3" y="7.8" fill="#D8D8D8" width="10.7" height="5"/>
        <circle fill="#B5B5B5" cx="65.7" cy="10.2" r="1.9"/>
        <circle fill="#C9C9C9" cx="65.7" cy="10.2" r="0.9"/>
        <polygon fill="#D8D8D8" points="69.3,8.4 71,7.7 89.2,7.7 69.7,11.1 	"/>
</g>
    <g transform="matrix(0.9999999,0,0,0.9999999,-1.666727,-1.000013)">
	<circle fill="#B5B5B5" cx="34.8" cy="21.1" r="4.7"/>
        <circle fill="#C9C9C9" cx="34.8" cy="21.1" r="2.2"/>
</g>
    <g transform="matrix(0.9999999,0,0,0.9999999,-1.666727,-1.000013)">
	<circle fill="#B5B5B5" cx="24" cy="27.1" r="4.7"/>
        <circle fill="#C9C9C9" cx="24" cy="27.1" r="2.2"/>
</g>
    <g id="HookPoint">
	<line id="HookPointE" fill="none" x1="244.8" y1="63.3" x2="303.6" y2="63.3"/>
        <path id="HookPointH" fill="none" d="M6.3,34.1C19.9,51.1,40.5,60.5,67,63.3"/>
        <rect id="HookPointH_M0" x="6.3" y="34.1"/>
        <rect id="HookPointH_C1" x="19.9" y="51.1"/>
        <rect id="HookPointH_C2" x="40.5" y="60.5"/>
        <rect id="HookPointH_C3" x="67" y="63.3"/>
</g>
</svg>
