<?xml version="1.0" encoding="utf-8"?>
<!-- Generator: Adobe Illustrator 23.0.1, SVG Export Plug-In . SVG Version: 6.00 Build 0)  -->
<svg version="1.1" id="图层_1" xmlns="http://www.w3.org/2000/svg" x="0px" y="0px"
	 viewBox="0 0 323 78" enable-background="new 0 0 323 78" xml:space="preserve"
	 preserveAspectRatio="none">
<path fill="#B5B5B5" d="M320.8,34C297.2,1.6,255.5,1.6,255.5,1.6s-215.3,0-234,0s-20,18-20,18v14.3v14.3c0,0,1.3,18,20,18
	s234,0,234,0S297.2,66.3,320.8,34z"/>
<path fill="#404153" d="M255.5,66.3c0,0-215.3,0-234,0c-7.4,0-12-2.8-15-6.2l-1.8,0.1c0,0,4.7,6.4,11.5,11.5
	c6.7,5.1,7.9,5.8,9.2,6.2L250,78.6c0,0,20.3-1.3,39.8-14.5s28.4-23.1,31.1-27.9l-1.8,0.1C295.1,66.3,255.5,66.3,255.5,66.3z"/>
<path fill="#5E5D74" d="M255.5,66.3c0,0-215.3,0-234,0c-7.2,0-11.8-2.7-14.8-6l-2.1,0.1C18,74.2,24.7,73,24.7,73h215
	c15,0.5,22.1-1,22.1-1c38.8-9.3,57.2-34.1,57.2-34.1l-1.5,0.1C293.6,66.3,255.5,66.3,255.5,66.3z"/>
<g transform="matrix(0.9999999,0,0,0.9999999,-0.6676623,-0.3335784)">
	<g>
		<circle fill="#FFFFFF" cx="229.2" cy="59.9" r="0.9"/>
	</g>
	<g>
		<g>
			<circle fill="#FFFFFF" cx="193.3" cy="59.9" r="0.9"/>
		</g>
		<g>
			<circle fill="#FFFFFF" cx="193.3" cy="8.6" r="0.9"/>
		</g>
	</g>
	<g>
		<g>
			<circle fill="#FFFFFF" cx="98.8" cy="8.6" r="0.9"/>
		</g>
	</g>
	<g>
		<g>
			<circle fill="#FFFFFF" cx="80.2" cy="8.6" r="0.9"/>
		</g>
	</g>
	<g>
		<g>
			<circle fill="#FFFFFF" cx="61" cy="40" r="0.9"/>
		</g>
	</g>
	<g>
		<g>
			<circle fill="#FFFFFF" cx="173.6" cy="52.5" r="0.9"/>
		</g>
	</g>
	<rect x="265.1" y="2.5" fill="#939393" width="2.5" height="64"/>
	<g>
		<rect x="30.3" y="6.1" fill="#CCCCCC" width="3.2" height="9.4"/>
		<g>
			<g>
				<rect x="35.2" y="9.1" fill="#C0E3F0" width="14.2" height="7.3"/>
				<rect x="35.2" y="54.5" fill="#C0E3F0" width="14.2" height="7.4"/>
			</g>
			<g>
				<rect x="15.3" y="16.3" fill="#A2D1DC" width="20.2" height="27.7"/>
				<rect x="32.9" y="16.3" fill="#C0E3F0" width="16.5" height="38.1"/>
				<rect x="24.7" y="21.6" fill="#C0E3F0" width="16.5" height="27.7"/>
				<polygon fill="#474C60" points="10.6,34.8 10.6,25.7 22.7,24.2 22.7,36.2"/>
				<polygon fill="#24242D" points="12.6,32.8 12.6,27.6 20.7,26.8 20.7,33.6"/>
				<rect x="45" y="29" fill="#FFFEFB" width="2.6" height="12.9"/>
				<rect x="45.3" y="34.5" fill="#D8D7D6" width="1.9" height="1.9"/>
				<circle fill="#FFFEFB" cx="46.3" cy="35.4" r="0.4"/>
				<rect x="33" y="30.3" fill="#AFAFAD" width="3" height="10.3"/>
				<rect x="33.9" y="33.6" fill="#24242D" width="1.1" height="3.7"/>
				<g>
					<rect x="28.4" y="13.2" fill="#FFFEFB" width="1.4" height="3.1"/>
					<rect x="26.8" y="13.3" fill="#FFFEFB" width="1.4" height="3.1"/>
				</g>
				<polygon fill="#C0E3F0" points="25.4,12.1 25.4,9.9 27.5,9.6 27.5,8.8 31.4,8.8 31.4,12.1"/>
			</g>
		</g>
	</g>
	<g>
		<rect x="235.4" y="1.9" fill="#939393" width="21.3" height="64.7"/>
		<g>
			<g>
				<rect x="245.3" y="46.8" fill="#ABAAAA" width="7.9" height="14.3"/>
				<rect x="238.9" y="53.1" fill="#ABAAAA" width="14.3" height="7.9"/>
			</g>
			<g>
				<rect x="245.2" y="7.4" fill="#ABAAAA" width="7.9" height="14.3"/>
				<rect x="238.9" y="7.5" fill="#ABAAAA" width="14.3" height="7.9"/>
			</g>
		</g>
		<circle fill="#D8D8D8" cx="250.7" cy="9.9" r="1.5"/>
		<g>
			<rect x="216.4" y="1.9" fill="#939393" width="10.1" height="64.7"/>
			<rect x="198.9" y="2" fill="#939393" width="8.1" height="64.7"/>
			<g>
				<g>
					<rect x="222.2" y="6.5" fill="#ABAAAA" width="2.6" height="9.2"/>
				</g>
				<g>
					<rect x="222.3" y="40.9" fill="#ABAAAA" width="2.6" height="9.2"/>
				</g>
			</g>
			<rect x="218" y="6.6" fill="#ABAAAA" width="2.6" height="9.2"/>
			<rect x="218" y="40.9" fill="#ABAAAA" width="2.6" height="9.2"/>
			<g>
				<rect x="220.1" y="19.2" fill="#ABAAAA" width="2.6" height="9.2"/>
				<rect x="220.1" y="53.5" fill="#ABAAAA" width="2.6" height="9.2"/>
			</g>
		</g>
		<g>
			<rect x="179.2" y="1.9" fill="#939393" width="10.1" height="64.7"/>
			<rect x="161.7" y="1.9" fill="#939393" width="8.1" height="64.7"/>
			<g>
				<g>
					<rect x="185" y="6.5" fill="#ABAAAA" width="2.6" height="9.2"/>
				</g>
				<g>
					<rect x="185" y="40.9" fill="#ABAAAA" width="2.6" height="9.2"/>
				</g>
			</g>
			<rect x="180.8" y="6.6" fill="#ABAAAA" width="2.6" height="9.2"/>
			<rect x="180.8" y="40.9" fill="#ABAAAA" width="2.6" height="9.2"/>
			<g>
				<rect x="182.9" y="19.2" fill="#ABAAAA" width="2.6" height="9.2"/>
				<rect x="182.9" y="53.5" fill="#ABAAAA" width="2.6" height="9.2"/>
			</g>
		</g>
		<g>
			<rect x="141.9" y="2" fill="#939393" width="10.1" height="64.7"/>
			<rect x="124.5" y="1.9" fill="#939393" width="8.1" height="64.7"/>
			<g>
				<g>
					<rect x="147.8" y="6.6" fill="#ABAAAA" width="2.6" height="9.2"/>
				</g>
				<g>
					<rect x="147.8" y="40.9" fill="#ABAAAA" width="2.6" height="9.2"/>
				</g>
			</g>
			<rect x="143.5" y="6.5" fill="#ABAAAA" width="2.6" height="9.2"/>
			<rect x="143.6" y="40.8" fill="#ABAAAA" width="2.6" height="9.2"/>
			<g>
				<rect x="145.7" y="19.2" fill="#ABAAAA" width="2.6" height="9.2"/>
				<rect x="145.6" y="53.6" fill="#ABAAAA" width="2.6" height="9.2"/>
			</g>
		</g>
		<g>
			<rect x="104.7" y="1.9" fill="#939393" width="10.1" height="64.7"/>
			<rect x="87.3" y="1.9" fill="#939393" width="8.1" height="64.7"/>
			<g>
				<g>
					<rect x="110.6" y="6.6" fill="#ABAAAA" width="2.6" height="9.2"/>
				</g>
				<g>
					<rect x="110.6" y="40.9" fill="#ABAAAA" width="2.6" height="9.2"/>
				</g>
			</g>
			<rect x="106.3" y="6.5" fill="#ABAAAA" width="2.6" height="9.2"/>
			<rect x="106.4" y="40.9" fill="#ABAAAA" width="2.6" height="9.2"/>
			<g>
				<rect x="108.5" y="19.2" fill="#ABAAAA" width="2.6" height="9.2"/>
				<rect x="108.4" y="53.6" fill="#ABAAAA" width="2.6" height="9.2"/>
			</g>
		</g>
		<g>
			<rect x="67.5" y="1.9" fill="#939393" width="10.1" height="64.7"/>
			<rect x="54" y="2" fill="#939393" width="4.2" height="64.7"/>
			<g>
				<g>
					<rect x="73.4" y="6.6" fill="#ABAAAA" width="2.6" height="9.2"/>
				</g>
				<g>
					<rect x="73.4" y="40.9" fill="#ABAAAA" width="2.6" height="9.2"/>
				</g>
			</g>
			<rect x="69.1" y="6.5" fill="#ABAAAA" width="2.6" height="9.2"/>
			<rect x="69.1" y="40.9" fill="#ABAAAA" width="2.6" height="9.2"/>
			<g>
				<rect x="71.3" y="19.2" fill="#ABAAAA" width="2.6" height="9.2"/>
				<rect x="71.2" y="53.5" fill="#ABAAAA" width="2.6" height="9.2"/>
			</g>
		</g>
	</g>
	<rect x="158.7" y="32.4" fill="#A2D1DC" width="95.2" height="3.6"/>
	<rect x="158.7" y="33.3" fill="#6B6B6B" width="95.2" height="1.8"/>
	<rect x="50" y="32.5" fill="#A2D1DC" width="104.1" height="3.6"/>
	<rect x="50" y="33.4" fill="#6B6B6B" width="104.1" height="1.8"/>
	<rect x="158.4" y="54.8" fill="#C0E3F0" width="68.1" height="1.7"/>
	<rect x="60.4" y="54.8" fill="#C0E3F0" width="76" height="1.7"/>
	<rect x="135.5" y="48.5" fill="#C0E3F0" width="48.9" height="1.7"/>
	<rect x="134.8" y="48.4" fill="#C0E3F0" width="1.7" height="7.1"/>
	<rect x="60.5" y="17.7" fill="#C0E3F0" width="76" height="1.7"/>
	<rect x="60.4" y="11.4" fill="#C0E3F0" width="62.7" height="1.7"/>
	<rect x="134.8" y="11.4" fill="#C0E3F0" width="1.7" height="7.1"/>
	<rect x="175.8" y="49.3" fill="#C0E3F0" width="1.8" height="6.3"/>
	<rect x="155.5" y="17.7" fill="#C0E3F0" width="1.8" height="31"/>
	<rect x="167.6" y="49.3" fill="#C0E3F0" width="1.8" height="6.3"/>
	<rect x="162.9" y="49.2" fill="#C0E3F0" width="1.8" height="6.3"/>
	<rect x="155.4" y="17.7" fill="#C0E3F0" width="55.3" height="1.7"/>
	<rect x="135.6" y="11.4" fill="#C0E3F0" width="48.9" height="1.7"/>
	<g>
		<rect x="159.1" y="12.3" fill="#C0E3F0" width="1.8" height="6.3"/>
		<rect x="171.3" y="12.2" fill="#C0E3F0" width="1.8" height="6.3"/>
		<rect x="166.6" y="12.3" fill="#C0E3F0" width="1.8" height="6.3"/>
	</g>
	<g>
		<rect x="71.8" y="12.2" fill="#C0E3F0" width="1.8" height="6.3"/>
		<rect x="83.9" y="12.2" fill="#C0E3F0" width="1.8" height="6.3"/>
		<rect x="79.3" y="12.2" fill="#C0E3F0" width="1.8" height="6.3"/>
	</g>
	<g>
		<rect x="224.8" y="27" fill="#B8E1ED" width="5" height="2.5"/>
		<rect x="224.8" y="39.1" fill="#B8E1ED" width="5" height="2.5"/>
	</g>
	<g>
		<rect x="131.4" y="26.9" fill="#B8E1ED" width="5" height="2.5"/>
		<rect x="131.5" y="39.1" fill="#B8E1ED" width="5" height="2.5"/>
	</g>
</g>
<path fill="none" stroke="#94C1CA" stroke-width="3" stroke-miterlimit="10" d="M320.8,34C297.2,1.6,255.5,1.6,255.5,1.6
	s-215.3,0-234,0s-20,18-20,18v14.3v14.3c0,0,1.3,18,20,18s234,0,234,0S297.2,66.3,320.8,34z"/>
<circle fill="#B8E1ED" cx="307.2" cy="33.9" r="2.3"/>
<circle fill="#D8D8D8" cx="272" cy="34" r="2.3"/>
<circle fill="#FFFFFF" cx="272" cy="34" r="1.2"/>
<g transform="matrix(0.9999999,0,0,0.9999999,-0.6676623,-0.3335784)">
	<circle fill="#FFFFFF" cx="272.7" cy="57.9" r="2.3"/>
	<circle fill="#FFFFFF" cx="272.7" cy="10.6" r="2.3"/>
</g>
<g transform="matrix(0.9999999,0,0,0.9999999,-0.6676623,-0.3335784)">
	<rect x="301.5" y="26.9" fill="#B8E1ED" width="5" height="2.5"/>
	<rect x="301.6" y="39.1" fill="#B8E1ED" width="5" height="2.5"/>
</g>
<g id="HookPoint">
	<line id="HookPointE" fill="none" x1="19.2" y1="63.4" x2="78" y2="63.4"/>
	<path id="HookPointH" fill="none" d="M255.8,63.4C281.9,60.7,302.5,51.4,316.1,34.3"/>
	<rect id="HookPointH_M0" x="255.8" y="63.4"/>
	<rect id="HookPointH_C1" x="281.9" y="60.7"/>
	<rect id="HookPointH_C2" x="302.5" y="51.4"/>
	<rect id="HookPointH_C3" x="316.1" y="34.3"/>
</g>
</svg>
