<?xml version="1.0" encoding="utf-8"?>
<!-- Generator: Adobe Illustrator 23.0.1, SVG Export Plug-In . SVG Version: 6.00 Build 0)  -->
<svg version="1.1" id="图层_1" xmlns="http://www.w3.org/2000/svg" x="0px" y="0px"
	 viewBox="0 0 323 78" enable-background="new 0 0 323 78" xml:space="preserve"
	 preserveAspectRatio="none">
<path fill="#B5B5B5" d="M1.9,34.3C25.6,1.9,67.2,1.9,67.2,1.9s215.3,0,234,0s20,18,20,18v14.3v14.3c0,0-1.3,18-20,18s-234,0-234,0
	S25.6,66.6,1.9,34.3z"/>
<path fill="#404153" d="M67.2,66.6c0,0,215.3,0,234,0c7.4,0,12-2.8,15-6.2l1.8,0.1c0,0-4.7,6.4-11.5,11.5c-6.7,5.1-7.9,5.8-9.2,6.2
	L72.8,78.9c0,0-20.3-1.3-39.8-14.5C13.4,51.2,4.6,41.3,1.9,36.5l1.8,0.1C27.7,66.6,67.2,66.6,67.2,66.6z"/>
<path fill="#5E5D74" d="M67.2,66.6c0,0,215.3,0,234,0c7.2,0,11.8-2.7,14.8-6l2.1,0.1C304.7,74.5,298,73.3,298,73.3H83
	c-15,0.5-22.1-1-22.1-1C22,63.1,3.6,38.2,3.6,38.2l1.5,0.1C29.2,66.6,67.2,66.6,67.2,66.6z"/>
<g transform="matrix(0.9999999,0,0,0.9999999,-0.3345209,-0.0002018213)">
	<g>
		<circle fill="#FFFFFF" cx="94.6" cy="59.9" r="0.9"/>
	</g>
	<g>
		<g>
			<circle fill="#FFFFFF" cx="130.4" cy="59.9" r="0.9"/>
		</g>
		<g>
			<circle fill="#FFFFFF" cx="130.4" cy="8.6" r="0.9"/>
		</g>
	</g>
	<g>
		<g>
			<circle fill="#FFFFFF" cx="225" cy="8.6" r="0.9"/>
		</g>
	</g>
	<g>
		<g>
			<circle fill="#FFFFFF" cx="243.6" cy="8.6" r="0.9"/>
		</g>
	</g>
	<g>
		<g>
			<circle fill="#FFFFFF" cx="262.8" cy="40" r="0.9"/>
		</g>
	</g>
	<g>
		<g>
			<circle fill="#FFFFFF" cx="150.2" cy="52.5" r="0.9"/>
		</g>
	</g>
	<rect x="56.2" y="2.5" fill="#939393" width="2.5" height="64"/>
	<g>
		<rect x="290.2" y="6.1" fill="#CCCCCC" width="3.2" height="9.4"/>
		<g>
			<g>
				<rect x="274.3" y="9.1" fill="#C0E3F0" width="14.2" height="7.3"/>
				<rect x="274.3" y="54.5" fill="#C0E3F0" width="14.2" height="7.4"/>
			</g>
			<g>
				<rect x="288.3" y="16.4" fill="#A2D1DC" width="20.2" height="27.7"/>
				<rect x="274.3" y="16.3" fill="#C0E3F0" width="16.5" height="38.1"/>
				<rect x="282.5" y="21.6" fill="#C0E3F0" width="16.5" height="27.7"/>
				<polygon fill="#474C60" points="313.2,34.8 313.2,25.7 301.1,24.2 301.1,36.2"/>
				<polygon fill="#24242D" points="311.1,32.8 311.1,27.6 303.1,26.8 303.1,33.6"/>
				<rect x="276.2" y="28.9" fill="#FFFEFB" width="2.6" height="12.9"/>
				<rect x="276.5" y="34.4" fill="#D8D7D6" width="1.9" height="1.9"/>
				<circle fill="#FFFEFB" cx="277.5" cy="35.4" r="0.4"/>
				<rect x="287.8" y="30.3" fill="#AFAFAD" width="3" height="10.3"/>
				<rect x="288.7" y="33.6" fill="#24242D" width="1.1" height="3.7"/>
				<g>
					<rect x="293.9" y="13.2" fill="#FFFEFB" width="1.4" height="3.1"/>
					<rect x="295.5" y="13.2" fill="#FFFEFB" width="1.4" height="3.1"/>
				</g>
				<polygon fill="#C0E3F0" points="298.4,12.1 298.4,9.9 296.2,9.6 296.2,8.8 292.4,8.8 292.4,12.1"/>
			</g>
		</g>
	</g>
	<g>
		<rect x="67.1" y="1.9" fill="#939393" width="21.3" height="64.7"/>
		<g>
			<g>
				<rect x="70.6" y="46.8" fill="#ABAAAA" width="7.9" height="14.3"/>
				<rect x="70.5" y="53.1" fill="#ABAAAA" width="14.3" height="7.9"/>
			</g>
			<g>
				<rect x="70.5" y="7.4" fill="#ABAAAA" width="7.9" height="14.3"/>
				<rect x="70.5" y="7.5" fill="#ABAAAA" width="14.3" height="7.9"/>
			</g>
		</g>
		<circle fill="#D8D8D8" cx="73" cy="9.9" r="1.5"/>
		<g>
			<rect x="97.3" y="1.9" fill="#939393" width="10.1" height="64.7"/>
			<rect x="116.7" y="1.9" fill="#939393" width="8.1" height="64.7"/>
			<g>
				<g>
					<rect x="98.9" y="6.6" fill="#ABAAAA" width="2.6" height="9.2"/>
				</g>
				<g>
					<rect x="98.9" y="40.9" fill="#ABAAAA" width="2.6" height="9.2"/>
				</g>
			</g>
			<rect x="103.1" y="6.5" fill="#ABAAAA" width="2.6" height="9.2"/>
			<rect x="103.2" y="40.8" fill="#ABAAAA" width="2.6" height="9.2"/>
			<g>
				<rect x="101.1" y="19.2" fill="#ABAAAA" width="2.6" height="9.2"/>
				<rect x="101" y="53.5" fill="#ABAAAA" width="2.6" height="9.2"/>
			</g>
		</g>
		<g>
			<rect x="134.5" y="1.9" fill="#939393" width="10.1" height="64.7"/>
			<rect x="153.9" y="2" fill="#939393" width="8.1" height="64.7"/>
			<g>
				<g>
					<rect x="136.1" y="6.5" fill="#ABAAAA" width="2.6" height="9.2"/>
				</g>
				<g>
					<rect x="136.1" y="40.9" fill="#ABAAAA" width="2.6" height="9.2"/>
				</g>
			</g>
			<rect x="140.4" y="6.6" fill="#ABAAAA" width="2.6" height="9.2"/>
			<rect x="140.4" y="40.9" fill="#ABAAAA" width="2.6" height="9.2"/>
			<g>
				<rect x="138.3" y="19.2" fill="#ABAAAA" width="2.6" height="9.2"/>
				<rect x="138.2" y="53.5" fill="#ABAAAA" width="2.6" height="9.2"/>
			</g>
		</g>
		<g>
			<rect x="171.7" y="1.9" fill="#939393" width="10.1" height="64.7"/>
			<rect x="191.2" y="2" fill="#939393" width="8.1" height="64.7"/>
			<g>
				<g>
					<rect x="173.3" y="6.5" fill="#ABAAAA" width="2.6" height="9.2"/>
				</g>
				<g>
					<rect x="173.4" y="40.9" fill="#ABAAAA" width="2.6" height="9.2"/>
				</g>
			</g>
			<rect x="177.6" y="6.6" fill="#ABAAAA" width="2.6" height="9.2"/>
			<rect x="177.6" y="40.9" fill="#ABAAAA" width="2.6" height="9.2"/>
			<g>
				<rect x="175.5" y="19.2" fill="#ABAAAA" width="2.6" height="9.2"/>
				<rect x="175.4" y="53.6" fill="#ABAAAA" width="2.6" height="9.2"/>
			</g>
		</g>
		<g>
			<rect x="208.9" y="2" fill="#939393" width="10.1" height="64.7"/>
			<rect x="228.4" y="1.9" fill="#939393" width="8.1" height="64.7"/>
			<g>
				<g>
					<rect x="210.5" y="6.5" fill="#ABAAAA" width="2.6" height="9.2"/>
				</g>
				<g>
					<rect x="210.6" y="40.8" fill="#ABAAAA" width="2.6" height="9.2"/>
				</g>
			</g>
			<rect x="214.8" y="6.6" fill="#ABAAAA" width="2.6" height="9.2"/>
			<rect x="214.8" y="40.9" fill="#ABAAAA" width="2.6" height="9.2"/>
			<g>
				<rect x="212.7" y="19.2" fill="#ABAAAA" width="2.6" height="9.2"/>
				<rect x="212.6" y="53.6" fill="#ABAAAA" width="2.6" height="9.2"/>
			</g>
		</g>
		<g>
			<rect x="246.2" y="1.9" fill="#939393" width="10.1" height="64.7"/>
			<rect x="265.6" y="1.9" fill="#939393" width="4.2" height="64.7"/>
			<g>
				<g>
					<rect x="247.8" y="6.6" fill="#ABAAAA" width="2.6" height="9.2"/>
				</g>
				<g>
					<rect x="247.8" y="40.9" fill="#ABAAAA" width="2.6" height="9.2"/>
				</g>
			</g>
			<rect x="252" y="6.5" fill="#ABAAAA" width="2.6" height="9.2"/>
			<rect x="252" y="40.9" fill="#ABAAAA" width="2.6" height="9.2"/>
			<g>
				<rect x="249.9" y="19.2" fill="#ABAAAA" width="2.6" height="9.2"/>
				<rect x="249.9" y="53.6" fill="#ABAAAA" width="2.6" height="9.2"/>
			</g>
		</g>
	</g>
	<rect x="69.8" y="32.5" fill="#A2D1DC" width="95.2" height="3.6"/>
	<rect x="69.8" y="33.4" fill="#6B6B6B" width="95.2" height="1.8"/>
	<rect x="169.6" y="32.5" fill="#A2D1DC" width="104.1" height="3.6"/>
	<rect x="169.6" y="33.4" fill="#6B6B6B" width="104.1" height="1.8"/>
	<rect x="97.3" y="54.8" fill="#C0E3F0" width="68.1" height="1.7"/>
	<rect x="187.3" y="54.8" fill="#C0E3F0" width="76" height="1.7"/>
	<rect x="139.2" y="48.5" fill="#C0E3F0" width="48.9" height="1.7"/>
	<rect x="187.3" y="48.5" fill="#C0E3F0" width="1.7" height="7.1"/>
	<rect x="187.4" y="17.7" fill="#C0E3F0" width="76" height="1.7"/>
	<rect x="200.6" y="11.4" fill="#C0E3F0" width="62.7" height="1.7"/>
	<rect x="187.3" y="11.4" fill="#C0E3F0" width="1.7" height="7.1"/>
	<rect x="146.2" y="49.3" fill="#C0E3F0" width="1.8" height="6.3"/>
	<rect x="166.5" y="17.7" fill="#C0E3F0" width="1.8" height="31"/>
	<rect x="154.5" y="49.3" fill="#C0E3F0" width="1.8" height="6.3"/>
	<rect x="159.1" y="49.3" fill="#C0E3F0" width="1.8" height="6.3"/>
	<rect x="113" y="17.7" fill="#C0E3F0" width="55.3" height="1.7"/>
	<rect x="139.3" y="11.4" fill="#C0E3F0" width="48.9" height="1.7"/>
	<g>
		<rect x="162.8" y="12.3" fill="#C0E3F0" width="1.8" height="6.3"/>
		<rect x="150.7" y="12.2" fill="#C0E3F0" width="1.8" height="6.3"/>
		<rect x="155.3" y="12.2" fill="#C0E3F0" width="1.8" height="6.3"/>
	</g>
	<g>
		<rect x="250.2" y="12.2" fill="#C0E3F0" width="1.8" height="6.3"/>
		<rect x="238" y="12.3" fill="#C0E3F0" width="1.8" height="6.3"/>
		<rect x="242.7" y="12.2" fill="#C0E3F0" width="1.8" height="6.3"/>
	</g>
	<g>
		<rect x="93.9" y="27" fill="#B8E1ED" width="5" height="2.5"/>
		<rect x="93.9" y="39.1" fill="#B8E1ED" width="5" height="2.5"/>
	</g>
	<g>
		<rect x="187.3" y="27" fill="#B8E1ED" width="5" height="2.5"/>
		<rect x="187.3" y="39.1" fill="#B8E1ED" width="5" height="2.5"/>
	</g>
</g>
<path fill="none" stroke="#94C1CA" stroke-width="3" stroke-miterlimit="10" d="M1.9,34.3C25.6,1.9,67.2,1.9,67.2,1.9s215.3,0,234,0
	s20,18,20,18v14.3v14.3c0,0-1.3,18-20,18s-234,0-234,0S25.6,66.6,1.9,34.3z"/>
<g transform="matrix(0.9999999,0,0,0.9999999,-0.3345209,-0.0002018213)">
	<circle fill="#FFFFFF" cx="51" cy="57.9" r="2.3"/>
	<circle fill="#FFFFFF" cx="51" cy="10.6" r="2.3"/>
	<circle fill="#D8D8D8" cx="51" cy="34.3" r="2.3"/>
	<circle fill="#FFFFFF" cx="51" cy="34.3" r="1.2"/>
	<circle fill="#B8E1ED" cx="15.9" cy="34.2" r="2.3"/>
</g>
<g transform="matrix(0.9999999,0,0,0.9999999,-0.3345209,-0.0002018213)">
	<rect x="17.2" y="27" fill="#B8E1ED" width="5" height="2.5"/>
	<rect x="17.2" y="39.1" fill="#B8E1ED" width="5" height="2.5"/>
</g>
<g id="HookPoint">
	<line id="HookPointE" fill="none" x1="244.8" y1="63.3" x2="303.6" y2="63.3"/>
	<path id="HookPointH" fill="none" d="M6.3,34.1C19.9,51.1,40.5,60.5,67,63.3"/>
    <rect id="HookPointH_M0" x="6.3" y="34.1"/>
    <rect id="HookPointH_C1" x="19.9" y="51.1"/>
    <rect id="HookPointH_C2" x="40.5" y="60.5"/>
    <rect id="HookPointH_C3" x="67" y="63.3"/>
</g>
</svg>
