<?xml version="1.0" encoding="utf-8"?>
<svg xmlns="http://www.w3.org/2000/svg" viewBox="0 0 554.106 70.923" xml:space="preserve" preserveAspectRatio="none">
	<style>
		.terminal path{
			fill: #F88011;
			stroke: #CCCCCC;
			stroke-width: 0.5;
		}
		.station path{
			fill: #FFFFFF;
    		stroke: #000000;
    		stroke-width: 0.5;
		}
	</style>
    <g id="Terminal" class="terminal">
		<path d="M334,20.2H220.5v-4H334L334,20.2L334,20.2z"/>
        <path d="M253.6,43.8h47.2V7h-47.2L253.6,43.8L253.6,43.8z"/>
        <path d="M341.9,6.7h-4.6V0.5h4.6V6.7z"/>
        <path d="M216.8,6.4h-4.6V0.3h4.6V6.4z"/>
        <path d="M403,59.2l-57.6-36l2-3.2L405,56L403,59.2z"/>
        <path d="M353.8,18.3c0,7.8-6.3,14.2-14.2,14.2c-7.8,0-14.2-6.3-14.2-14.2s6.3-14.2,14.2-14.2C347.5,4.1,353.8,10.4,353.8,18.3z"/>
        <path d="M482.2,40.8l-65.6,17.6l-1-3.6l65.6-17.6L482.2,40.8z"/>
        <path d="M418.5,59.4c0,6.2-5,11.2-11.2,11.2s-11.2-5-11.2-11.2c0-6.2,5-11.2,11.2-11.2S418.5,53.2,418.5,59.4z"/>
        <path d="M534.6,35.8l-34.9,1.8l-0.2-3.8l34.9-1.8L534.6,35.8z"/>
        <path d="M553.9,33.2c0,6.2-5,11.2-11.2,11.2s-11.2-5-11.2-11.2c0-6.2,5-11.2,11.2-11.2S553.9,27,553.9,33.2z"/>
        <path d="M501.9,36.5c0,6.2-5,11.2-11.2,11.2s-11.2-5-11.2-11.2s5-11.2,11.2-11.2S501.9,30.3,501.9,36.5z"/>
        <path d="M151.6,59.2l57.6-36l-2-3.2l-57.6,36L151.6,59.2z"/>
        <path d="M72.4,40.8L138,58.4l1-3.6L73.4,37.2L72.4,40.8z"/>
        <path d="M20,35.7L55,37.6l0.2-3.8L20.2,32L20,35.7z"/>
        <path d="M22.7,33.2c0,6.2-5,11.2-11.2,11.2s-11.2-5-11.2-11.2S5.3,22,11.5,22S22.7,27,22.7,33.2z"/>
        <path d="M75,36.4c0,6.2-5,11.2-11.2,11.2c-6.2,0-11.2-5-11.2-11.2s5-11.2,11.2-11.2C69.9,25.1,75,30.2,75,36.4z"/>
        <path d="M158.2,59.3c0,6.2-5,11.2-11.2,11.2s-11.2-5-11.2-11.2s5-11.2,11.2-11.2S158.2,53.1,158.2,59.3z"/>
        <path d="M228.7,18.1c0,7.8-6.3,14.2-14.2,14.2c-7.8,0-14.2-6.3-14.2-14.2s6.3-14.2,14.2-14.2C222.4,3.9,228.7,10.2,228.7,18.1z"/>
	</g>
    <g id="HookStation_1" class="station">
		<path id="HOOK_1" d="M6.8,31.1l-1.9-2.7l7.7-5.4l1.9,2.7L6.8,31.1z"/>
        <path id="HOOK_2" d="M9.2,34.4l-1.9-2.7l7.7-5.4l1.9,2.7L9.2,34.4z"/>
        <path id="HOOK_3" d="M11.5,37.7L9.6,35l7.7-5.4l1.9,2.7L11.5,37.7z"/>
        <path id="HOOK_4" d="M13.8,41l-1.9-2.7l7.7-5.4l1.9,2.7L13.8,41z"/>
	</g>
    <g id="HookStation_2" class="station">
		<path id="HOOK_5" d="M59.1,34.4l-1.9-2.7l7.7-5.4l1.9,2.7L59.1,34.4z"/>
        <path id="HOOK_6" d="M61.4,37.7l-1.9-2.7l7.7-5.4l1.9,2.7L61.4,37.7z"/>
        <path id="HOOK_7" d="M63.8,41l-1.9-2.7l7.7-5.4l1.9,2.7L63.8,41z"/>
        <path id="HOOK_8" d="M66.1,44.3l-1.9-2.7l7.7-5.4l1.9,2.7L66.1,44.3z"/>
	</g>
    <g id="HookStation_3" class="station">
    	<path id="HOOK_9" d="M142.4,61.9h-3.3v-9.4h3.3V61.9z"/>
        <path id="HOOK_10" d="M146.5,61.9h-3.3v-9.4h3.3V61.9z"/>
        <path id="HOOK_11" d="M150.5,61.9h-3.3v-9.4h3.3V61.9z"/>
        <path id="HOOK_12" d="M154.6,61.9h-3.3v-9.4h3.3V61.9z"/>
	</g>
    <g id="HookStation_4" class="station">
    	<path id="HOOK_13" d="M210.6,20.4l-2.4,2.4l-6.7-6.7l2.4-2.4L210.6,20.4z"/>
        <path id="HOOK_14" d="M213.5,17.6l-2.4,2.4l-6.7-6.7l2.4-2.4L213.5,17.6z"/>
        <path id="HOOK_15" d="M216.3,14.7l-2.4,2.4l-6.7-6.7l2.4-2.4L216.3,14.7z"/>
        <path id="HOOK_16" d="M219.2,11.8l-2.4,2.4l-6.7-6.7l2.4-2.4L219.2,11.8z"/>
	</g>
    <g id="HookStation_5" class="station">
    	<path id="HOOK_17" d="M334.8,11.9l2.4,2.4l6.7-6.7l-2.4-2.4L334.8,11.9z"/>
        <path id="HOOK_18" d="M337.7,14.8l2.4,2.4l6.7-6.7l-2.4-2.4L337.7,14.8z"/>
        <path id="HOOK_19" d="M340.5,17.6l2.4,2.4l6.7-6.7l-2.4-2.4L340.5,17.6z"/>
        <path id="HOOK_20" d="M343.4,20.5l2.4,2.4l6.7-6.7l-2.4-2.4L343.4,20.5z"/>
	</g>
    <g id="HookStation_6" class="station">
    	<path id="HOOK_21" d="M402.9,62.6h-3.3v-9.4h3.3V62.6z"/>
        <path id="HOOK_22" d="M406.9,62.6h-3.3v-9.4h3.3V62.6z"/>
        <path id="HOOK_23" d="M411,62.6h-3.3v-9.4h3.3V62.6z"/>
        <path id="HOOK_24" d="M415,62.6h-3.3v-9.4h3.3V62.6z"/>
	</g>
    <g id="HookStation_7" class="station">
		<path id="HOOK_25" d="M488.5,44.4l1.9-2.7l-7.7-5.4l-1.9,2.7L488.5,44.4z"/>
        <path id="HOOK_26" d="M490.8,41.1l1.9-2.7L485,33l-1.9,2.7L490.8,41.1z"/>
        <path id="HOOK_27" d="M493.1,37.8l1.9-2.7l-7.7-5.4l-1.9,2.7L493.1,37.8z"/>
        <path id="HOOK_28" d="M495.5,34.5l1.9-2.7l-7.7-5.4l-1.9,2.7L495.5,34.5z"/>
	</g>
    <g id="HookStation_8" class="station">
		<path id="HOOK_29" d="M540.7,41.2l1.9-2.7l-7.7-5.4l-1.9,2.7L540.7,41.2z"/>
        <path id="HOOK_30" d="M543,37.9l1.9-2.7l-7.7-5.4l-1.9,2.7L543,37.9z"/>
        <path id="HOOK_31" d="M545.4,34.6l1.9-2.7l-7.7-5.4l-1.9,2.7L545.4,34.6z"/>
        <path id="HOOK_32" d="M547.7,31.3l1.9-2.7l-7.7-5.4l-1.9,2.7L547.7,31.3z"/>
	</g>
</svg>
