<svg xmlns="http://www.w3.org/2000/svg" viewBox="0 0 1100.21 164.09">
	 <defs>
<style>
	.terminal path{
                fill: #F88011;
                stroke: #CCCCCC;
                stroke-width: 0.5;
            }
            .station path{
                fill: #FFFFFF;
                stroke: #000000;
                stroke-width: 0.5;
            }
</style>
</defs>
<g id="Terminal" class="terminal" οnclick="showmsg()">
	<path d="M142.8,154.2h130.7l9.1-6.3l125-115.4h80.4v6.2h-78.7L288.1,152.9l-14.4,8.7l-130.9,0.2"/>
	<path d="M612.3,32.5h80.4l122.6,113.2l19.2,8.5H956l16.9-4.9l97.8-46.3l3.2,6.8L972.1,158l-15.9,3.7H831.6l-19.4-8.7
		L688.4,38.7h-76.1V32.5z"/>
	<path d="M155.4,147.4c0-8.9-7.2-16.2-16.2-16.2s-16.2,7.2-16.2,16.2c0,8.9,7.2,16.2,16.2,16.2
		C148.1,163.6,155.4,156.3,155.4,147.4L155.4,147.4z"/>
	<path d="M290.3,147.4c0-8.9-7.2-16.2-16.2-16.2s-16.2,7.2-16.2,16.2c0,8.9,7.2,16.2,16.2,16.2S290.3,156.3,290.3,147.4
		L290.3,147.4z"/>
	<path d="M842.4,147.4c0-8.9-7.2-16.2-16.2-16.2s-16.2,7.2-16.2,16.2c0,8.9,7.2,16.2,16.2,16.2S842.4,156.3,842.4,147.4
		L842.4,147.4z"/>
	<path d="M977.3,147.4c0-8.9-7.2-16.2-16.2-16.2s-16.2,7.2-16.2,16.2c0,8.9,7.2,16.2,16.2,16.2S977.3,156.3,977.3,147.4
		L977.3,147.4z"/>
	<path d="M1099.7,97.4c0-8.9-7.2-16.2-16.2-16.2c-8.9,0-16.2,7.2-16.2,16.2s7.2,16.2,16.2,16.2l0,0l0,0
		C1092.5,113.6,1099.7,106.4,1099.7,97.4z"/>
	<path d="M422.7,56.2v-45l-5-5h-25l-5,5v45H422.7z"/>
	<path d="M409.2,1.2h-8V0.5h8V1.2z"/>
	<path d="M407.8,6.2h-5.3v-5h5.3V6.2z"/>
	<path d="M712.7,56.2v-45l-5-5h-25l-5,5v45H712.7z"/>
	<path d="M699.2,1.2h-8V0.5h8V1.2z"/>
	<path d="M697.8,6.2h-5.3v-5h5.3V6.2z"/>
	<path d="M471.4,38.7V11.2l-5-5H449l-5,5v27.5H471.4z"/>
	<path d="M460.4,1.2h-5.5v5h5.5V1.2z"/>
	<path d="M461.7,1.2h-8V0.5h8V1.2z"/>
	<path d="M656.4,38.7V11.2l-5-5H634l-5,5v27.5H656.4z"/>
	<path d="M645.4,1.2h-5.5v5h5.5V1.2z"/>
	<path d="M646.7,1.2h-8V0.5h8V1.2z"/>
	<path d="M486.8,75.8h127.1V8.7H486.8V75.8z"/>
</g>
<g id="HookStation_2" class="station">
	<path id="HOOK_5" d="M135,152.9h-4.5v-11.1h4.5V152.9z"/>
	<path id="HOOK_6" d="M141.4,152.9h-4.5v-11.1h4.5V152.9z"/>
	<path id="HOOK_7" d="M147.9,152.9h-4.5v-11.1h4.5V152.9z"/>
</g>
<g id="HookStation_3" class="station">
	<path id="HOOK_8" d="M269.9,153h-4.5v-11.1h4.5V153z"/>
	<path id="HOOK_9" d="M276.3,153h-4.5v-11.1h4.5V153z"/>
	<path id="HOOK_10" d="M282.8,153h-4.5v-11.1h4.5V153z"/>
</g>
<g id="HookStation_4" class="station">
	<path id="HOOK_11" d="M404.3,19.3h-4.5V8.2h4.5V19.3z"/>
	<path id="HOOK_12" d="M410.7,19.3h-4.5V8.2h4.5V19.3z"/>
</g>
<g id="HookStation_5" class="station">
	<path id="HOOK_13" d="M456.7,19.3h-4.5V8.2h4.5L456.7,19.3z"/>
	<path id="HOOK_14" d="M463.2,19.3h-4.5V8.2h4.5V19.3z"/>
</g>
<g id="HookStation_6" class="station">
	<path id="HOOK_15" d="M641.7,19.3h-4.5V8.2h4.5V19.3z"/>
	<path id="HOOK_16" d="M648.2,19.3h-4.5V8.2h4.5V19.3z"/>
</g>
<g id="HookStation_7" class="station">
	<path id="HOOK_17" d="M694.2,19.3h-4.5V8.2h4.5V19.3z"/>
	<path id="HOOK_18" d="M700.6,19.3h-4.5V8.2h4.5V19.3z"/>
</g>
<g id="HookStation_8" class="station">
	<path id="HOOK_19" d="M822,153h-4.5v-11.1h4.5V153z"/>
	<path id="HOOK_20" d="M828.5,153h-4.5v-11.1h4.5V153z"/>
	<path id="HOOK_21" d="M834.9,153h-4.5v-11.1h4.5V153z"/>
</g>
<g id="HookStation_9" class="station">
	<path id="HOOK_22" d="M956.9,153h-4.5v-11.1h4.5V153z"/>
	<path id="HOOK_23" d="M963.4,153h-4.5v-11.1h4.5V153z"/>
	<path id="HOOK_24" d="M969.8,153h-4.5v-11.1h4.5V153z"/>
</g>
<g id="HookStation_10" class="station">
	<path id="HOOK_25" d="M1076.1,103h-4.5V91.9h4.5V103z"/>
	<path id="HOOK_26" d="M1082.6,103h-4.6V91.9h4.5L1082.6,103z"/>
	<path id="HOOK_27" d="M1089,103h-4.5V91.9h4.5V103z"/>
	<path id="HOOK_28" d="M1095.4,103h-4.5V91.9h4.5V103z"/>
</g>
</svg>
